<svg width="200" height="200" viewBox="0 0 200 200" fill="none" xmlns="http://www.w3.org/2000/svg">
<path d="M200 100C200 155.228 155.228 200 100 200C44.7715 200 0 155.228 0 100C0 44.7715 44.7715 0 100 0C155.228 0 200 44.7715 200 100Z" fill="#C1FE73"/>
<path d="M65.7158 146.915H41.5654L55.6768 53.085H79.7695L65.7158 146.915Z" fill="#222528"/>
<path d="M159.164 146.915H134.898L126.81 92.9072L104.658 146.915H94.9521L78.3926 104.391L83.7139 69.3281C84.023 67.2913 86.838 66.9957 87.5635 68.9238L100.427 103.111L119.094 53.085H143.235L159.164 146.915Z" fill="#222528"/>
</svg>
